<svg width="16" height="17" viewBox="0 0 16 17" fill="none" xmlns="http://www.w3.org/2000/svg">
<g id="calendar (1) 1" clip-path="url(#clip0_106_2252)">
<g id="Layer_2">
<g id="Vector">
<path d="M12.5283 1.79016H12.2575V1.46856C12.2575 1.20172 12.0297 0.985352 11.7487 0.985352C11.4677 0.985352 11.2399 1.20172 11.2399 1.46856V1.79016H4.76009V1.46856C4.76009 1.20172 4.53226 0.985352 4.25129 0.985352C3.97032 0.985352 3.74249 1.20172 3.74249 1.46856V1.79016H3.47339C1.55805 1.79016 0 3.26984 0 5.08884V13.6867C0 15.5057 1.55805 16.9854 3.47339 16.9854H12.5266C14.4419 16.9854 16 15.5057 16 13.6867V5.08669C15.9994 3.2693 14.4425 1.79016 12.5283 1.79016ZM3.47339 2.75657H3.74249V3.07817C3.74249 3.345 3.97032 3.56137 4.25129 3.56137C4.53226 3.56137 4.76009 3.345 4.76009 3.07817V2.75657H11.2399V3.07817C11.2399 3.345 11.4677 3.56137 11.7487 3.56137C12.0297 3.56137 12.2575 3.345 12.2575 3.07817V2.75657H12.5283C13.8811 2.75657 14.9818 3.8019 14.9818 5.08669V6.21846H1.0176V5.08884C1.0176 3.80298 2.11943 2.75657 3.47339 2.75657ZM12.5266 16.0184H3.47339C2.11943 16.0184 1.0176 14.972 1.0176 13.6861V7.18488H14.9818V13.6861C14.9824 14.972 13.8806 16.0184 12.5266 16.0184Z" fill="#577A5B"/>
<path d="M3.47339 2.75657H3.74249V3.07817C3.74249 3.345 3.97032 3.56137 4.25129 3.56137C4.53226 3.56137 4.76009 3.345 4.76009 3.07817V2.75657H11.2399V3.07817C11.2399 3.345 11.4677 3.56137 11.7487 3.56137C12.0297 3.56137 12.2575 3.345 12.2575 3.07817V2.75657H12.5283C13.8811 2.75657 14.9818 3.8019 14.9818 5.08669V6.21846H1.0176V5.08884C1.0176 3.80298 2.11943 2.75657 3.47339 2.75657Z" fill="#78C081"/>
<path d="M12.5266 16.0184H3.47339C2.11943 16.0184 1.0176 14.972 1.0176 13.6861V7.18488H14.9818V13.6861C14.9824 14.972 13.8806 16.0184 12.5266 16.0184Z" fill="#78C081"/>
</g>
<path id="Vector_2" d="M4.8156 9.5293H4.01905C3.73808 9.5293 3.51025 9.74567 3.51025 10.0125C3.51025 10.2793 3.73808 10.4957 4.01905 10.4957H4.8156C5.09657 10.4957 5.3244 10.2793 5.3244 10.0125C5.3244 9.74567 5.09657 9.5293 4.8156 9.5293Z" fill="#577A5B"/>
<path id="Vector_3" d="M8.39837 9.5293H7.60182C7.32085 9.5293 7.09302 9.74567 7.09302 10.0125C7.09302 10.2793 7.32085 10.4957 7.60182 10.4957H8.39837C8.67934 10.4957 8.90716 10.2793 8.90716 10.0125C8.90716 9.74567 8.67934 9.5293 8.39837 9.5293Z" fill="#577A5B"/>
<path id="Vector_4" d="M11.1846 10.4957H11.9811C12.2621 10.4957 12.4899 10.2793 12.4899 10.0125C12.4899 9.74567 12.2621 9.5293 11.9811 9.5293H11.1846C10.9036 9.5293 10.6758 9.74567 10.6758 10.0125C10.6758 10.2793 10.9036 10.4957 11.1846 10.4957Z" fill="#577A5B"/>
<path id="Vector_5" d="M4.8156 12.7075H4.01905C3.73808 12.7075 3.51025 12.9239 3.51025 13.1907C3.51025 13.4576 3.73808 13.6739 4.01905 13.6739H4.8156C5.09657 13.6739 5.3244 13.4576 5.3244 13.1907C5.3244 12.9239 5.09657 12.7075 4.8156 12.7075Z" fill="#577A5B"/>
<path id="Vector_6" d="M8.39837 12.7075H7.60182C7.32085 12.7075 7.09302 12.9239 7.09302 13.1907C7.09302 13.4576 7.32085 13.6739 7.60182 13.6739H8.39837C8.67934 13.6739 8.90716 13.4576 8.90716 13.1907C8.90716 12.9239 8.67934 12.7075 8.39837 12.7075Z" fill="#577A5B"/>
<path id="Vector_7" d="M11.9813 12.7075H11.1847C10.9037 12.7075 10.6759 12.9239 10.6759 13.1907C10.6759 13.4576 10.9037 13.6739 11.1847 13.6739H11.9813C12.2622 13.6739 12.4901 13.4576 12.4901 13.1907C12.4901 12.9239 12.2628 12.7075 11.9813 12.7075Z" fill="#577A5B"/>
</g>
</g>
<defs>
<clipPath id="clip0_106_2252">
<rect width="16" height="16" fill="white" transform="translate(0 0.985352)"/>
</clipPath>
</defs>
</svg>
