<svg width="1440" height="127" viewBox="0 0 1440 127" fill="none" xmlns="http://www.w3.org/2000/svg">
<path d="M-10 48C2.81926 55.7505 45.6079 74.158 114.208 85.7837C199.959 100.316 244.133 85.2024 267 82.296M267 82.296L256.5 77.5M267 82.296L259 90.5" stroke="#78C081" stroke-width="2" stroke-linecap="round" stroke-linejoin="round"/>
<path d="M783 93.4955C810 107.674 853 124.941 915.5 125.937C1009.5 127.434 1045.5 101.98 1065 92.7927M1065 92.7927L1054.5 91M1065 92.7927L1059 101.98" stroke="#78C081" stroke-width="2" stroke-linecap="round" stroke-linejoin="round"/>
<path d="M383.5 77.5025C407 66.5016 446.5 48.5029 514.208 44.5022C593 39.8465 623 59.0014 667 76.0015M667 76.0015L661.5 67.4999M667 76.0015L657 79.9999" stroke="#78C081" stroke-width="2" stroke-linecap="round" stroke-linejoin="round"/>
<path d="M1181 59C1199 45.7908 1244.5 23.501 1315 10.4997C1340.87 5.72899 1406.5 -1.49822 1468 9.50135M1468 9.50135L1462.5 1M1468 9.50135L1458 13.4996" stroke="#78C081" stroke-width="2" stroke-linecap="round" stroke-linejoin="round"/>
</svg>
