<svg width="375" height="542" viewBox="0 0 375 542" fill="none" xmlns="http://www.w3.org/2000/svg">
<path d="M-60.5093 1.9856C-55.4085 11.3933 -35.7556 37.4249 2.04948 66.2901C49.3059 102.372 81.6066 104.697 96.5959 109.439M96.5959 109.439L91.8714 102.851M96.5959 109.439L88.8215 112.952" stroke="#78C081" stroke-width="2" stroke-linecap="round" stroke-linejoin="round"/>
<path d="M218 129.486C271.5 129.486 324.753 146.346 338.545 191.758C347.563 229.082 330.027 256.333 298.221 289.307M298.221 289.307L306.5 287.986M298.221 289.307L298 279.986" stroke="#78C081" stroke-width="2" stroke-linecap="round" stroke-linejoin="round"/>
<path d="M166 328.986C121 343.985 25.7101 383.794 21.4396 425.418C18.1181 457.791 38 470.985 56.81 472.225M56.81 472.225L52.5001 465.986M56.81 472.225L50.0001 475.986" stroke="#78C081" stroke-width="2" stroke-linecap="round" stroke-linejoin="round"/>
<path d="M175 500.161C214.716 521.116 280.428 533.04 319.661 531.994C342.097 531.396 386.408 529.916 417.824 495.174M417.824 495.174L413.446 500.882M417.824 495.174L409.089 493.166" stroke="#78C081" stroke-width="2" stroke-linecap="round" stroke-linejoin="round"/>
</svg>
