<svg width="16" height="14" viewBox="0 0 16 14" fill="none" xmlns="http://www.w3.org/2000/svg">
<g id="envelope 1" clip-path="url(#clip0_106_2249)">
<g id="Group">
<g id="Vector">
<path d="M14.6667 0.985352H1.33334C0.597969 0.985352 0 1.63315 0 2.42981V12.5409C0 13.3376 0.597969 13.9854 1.33334 13.9854H14.6667C15.402 13.9854 16 13.3376 16 12.5409V2.42981C16 1.63315 15.402 0.985352 14.6667 0.985352ZM1.33334 1.70756H14.6667C14.7158 1.70756 14.7591 1.72696 14.8052 1.73793C13.6508 2.88244 9.82322 6.67587 8.48375 7.98328C8.37894 8.08555 8.21 8.20756 8.00003 8.20756C7.79006 8.20756 7.62113 8.08555 7.51597 7.98294C6.17663 6.67573 2.34878 2.8821 1.19463 1.738C1.24081 1.72703 1.28419 1.70756 1.33334 1.70756ZM0.666656 12.5409V2.42981C0.666656 2.35905 0.686344 2.29486 0.703969 2.2302C1.58747 3.10621 4.25822 5.75307 5.98997 7.45908C4.26384 9.06536 1.59241 11.8092 0.701875 12.7291C0.686156 12.6677 0.666656 12.6077 0.666656 12.5409ZM14.6667 13.2631H1.33334C1.28009 13.2631 1.23275 13.243 1.18303 13.2302C2.10325 12.2798 4.79169 9.52022 6.48747 7.94861C6.70853 8.16585 6.91047 8.36393 7.06966 8.51933C7.34441 8.78806 7.666 8.92981 8 8.92981C8.334 8.92981 8.65559 8.78803 8.93 8.51966C9.08925 8.36421 9.29134 8.16596 9.51253 7.94861C11.2084 9.52005 13.8965 12.2794 14.817 13.2302C14.7673 13.243 14.72 13.2631 14.6667 13.2631ZM15.3333 12.5409C15.3333 12.6076 15.3138 12.6677 15.2982 12.7291C14.4073 11.8087 11.7362 9.06519 10.0101 7.45912C11.7419 5.7531 14.4122 3.10648 15.296 2.23014C15.3137 2.2948 15.3333 2.35902 15.3333 2.42977V12.5409Z" fill="#577A5B"/>
<path d="M1.33334 1.70756H14.6667C14.7158 1.70756 14.7591 1.72696 14.8052 1.73793C13.6508 2.88244 9.82322 6.67587 8.48375 7.98328C8.37894 8.08555 8.21 8.20756 8.00003 8.20756C7.79006 8.20756 7.62113 8.08555 7.51597 7.98294C6.17663 6.67573 2.34878 2.8821 1.19463 1.738C1.24081 1.72703 1.28419 1.70756 1.33334 1.70756Z" fill="#78C081"/>
<path d="M0.666656 12.5409V2.42981C0.666656 2.35905 0.686344 2.29486 0.703969 2.2302C1.58747 3.10621 4.25822 5.75307 5.98997 7.45908C4.26384 9.06536 1.59241 11.8092 0.701875 12.7291C0.686156 12.6677 0.666656 12.6077 0.666656 12.5409Z" fill="#78C081"/>
<path d="M14.6667 13.2631H1.33334C1.28009 13.2631 1.23275 13.243 1.18303 13.2302C2.10325 12.2798 4.79169 9.52022 6.48747 7.94861C6.70853 8.16585 6.91047 8.36393 7.06966 8.51933C7.34441 8.78806 7.666 8.92981 8 8.92981C8.334 8.92981 8.65559 8.78803 8.93 8.51966C9.08925 8.36421 9.29134 8.16596 9.51253 7.94861C11.2084 9.52005 13.8965 12.2794 14.817 13.2302C14.7673 13.243 14.72 13.2631 14.6667 13.2631Z" fill="#78C081"/>
<path d="M15.3333 12.5409C15.3333 12.6076 15.3138 12.6677 15.2982 12.7291C14.4073 11.8087 11.7362 9.06519 10.0101 7.45912C11.7419 5.7531 14.4122 3.10648 15.296 2.23014C15.3137 2.2948 15.3333 2.35902 15.3333 2.42977V12.5409Z" fill="#78C081"/>
</g>
</g>
</g>
<defs>
<clipPath id="clip0_106_2249">
<rect width="16" height="13" fill="white" transform="translate(0 0.985352)"/>
</clipPath>
</defs>
</svg>
