<svg width="20" height="20" viewBox="0 0 20 20" fill="none" xmlns="http://www.w3.org/2000/svg">
<g clip-path="url(#clip0_92_409)">
<path d="M19.5124 15.7158C19.5096 15.7119 19.5044 15.7041 19.4984 15.6923C19.4964 15.6882 19.4943 15.6838 19.4921 15.6788C19.4912 15.676 19.4916 15.6767 19.4926 15.6817C19.493 15.684 19.4936 15.6873 19.4942 15.6917C19.4945 15.6936 19.4948 15.6956 19.495 15.6978M19.5124 15.7158C19.5104 15.7135 19.5071 15.7099 19.5022 15.7048C19.5 15.7026 19.4976 15.7003 19.495 15.6978M19.5124 15.7158C19.5137 15.7177 19.5146 15.7186 19.5146 15.7186C19.5147 15.7187 19.514 15.7177 19.5124 15.7158ZM19.495 15.6978C19.4976 15.7182 19.4998 15.7496 19.4997 15.7943V15.7955C19.4997 15.9972 19.4614 16.2892 19.3703 16.6844L19.3702 16.6848C19.2786 17.0834 19.188 17.3728 19.1019 17.5674L19.1018 17.5674L19.0982 17.5762C19.0393 17.7164 18.9058 17.9009 18.6489 18.1241C18.3955 18.3445 18.0446 18.5829 17.5862 18.8372M19.495 15.6978C19.4703 15.6741 19.4273 15.6382 19.3588 15.5904C19.2077 15.485 18.9766 15.352 18.6542 15.191L18.6401 15.1839L18.6264 15.176C18.4534 15.0754 18.2027 14.9364 17.8723 14.7568C17.5393 14.576 17.2364 14.4091 16.9642 14.2561L17.5862 18.8372M17.5862 18.8372C16.758 19.2861 15.9591 19.5001 15.1847 19.5001C14.9513 19.5001 14.7253 19.4847 14.5064 19.4551C14.2931 19.4255 14.0443 19.3719 13.7574 19.2913C13.4569 19.2066 13.2451 19.1415 13.1149 19.0952L13.1148 19.0952C12.9728 19.0447 12.7137 18.9491 12.3347 18.807C11.9676 18.669 11.7273 18.5805 11.6266 18.5468C10.7295 18.2258 9.93539 17.8483 9.24199 17.4161L9.24011 17.4149C8.06875 16.6921 6.84648 15.6983 5.574 14.4259C4.30157 13.1534 3.30779 11.9309 2.58521 10.7596L2.584 10.7577C2.15168 10.064 1.77405 9.27009 1.45333 8.37281C1.41981 8.27317 1.33112 8.03268 1.19342 7.66505L1.19335 7.66488C1.05116 7.2857 0.955602 7.02695 0.905323 6.88511L17.5862 18.8372ZM16.1695 13.7955L16.1487 13.7798C16.1208 13.7589 16.0135 13.6837 15.8099 13.5428C15.6211 13.4126 15.4771 13.3268 15.3722 13.2762C15.2961 13.2396 15.237 13.2277 15.1913 13.2267C15.1847 13.2283 15.1595 13.2355 15.1129 13.2621C15.0412 13.303 14.9436 13.3756 14.8193 13.4936C14.5558 13.7442 14.3142 14.0163 14.0946 14.311L14.0945 14.3111C13.8448 14.646 13.5791 14.9565 13.298 15.243L13.2978 15.2432C13.149 15.3946 12.9969 15.5257 12.842 15.6216C12.6911 15.715 12.5014 15.7977 12.2876 15.7977C12.1181 15.7977 11.9482 15.7524 11.7951 15.6961L11.7941 15.6957C11.6594 15.6457 11.5446 15.5985 11.4563 15.5552L11.4509 15.5526L11.4509 15.5526C11.3637 15.5085 11.2342 15.4322 11.0732 15.3325C10.9929 15.2831 10.9316 15.2455 10.8884 15.2193C10.8667 15.2062 10.8507 15.1966 10.8398 15.1902C10.837 15.1885 10.8349 15.1873 10.8333 15.1864L10.8322 15.1858L10.8232 15.1809C9.49048 14.4413 8.33933 13.5904 7.37438 12.6258L7.37422 12.6257C6.40962 11.6606 5.55855 10.5095 4.81916 9.17656L4.81385 9.16697L4.8132 9.16568C4.81233 9.16417 4.81119 9.1622 4.80973 9.15973C4.80338 9.14892 4.79389 9.13304 4.78076 9.11137C4.75465 9.06826 4.71708 9.00702 4.66766 8.92698L16.1695 13.7955ZM16.1695 13.7955L16.1919 13.8089M16.1695 13.7955L16.1919 13.8089M16.1919 13.8089C16.4328 13.9533 16.69 14.1025 16.9641 14.2561L16.1919 13.8089ZM4.44675 8.54658C4.40135 8.4558 4.35369 8.33861 4.30445 8.20545C4.24759 8.05167 4.20242 7.88187 4.20242 7.71243C4.20242 7.49854 4.28512 7.30884 4.37861 7.15793C4.47454 7.00311 4.60556 6.85101 4.75688 6.70233L4.75695 6.70226C5.04358 6.42076 5.35447 6.15509 5.68893 5.90558L5.68908 5.90547C5.9836 5.68593 6.25562 5.44435 6.50601 5.18098L4.44675 8.54658ZM4.44675 8.54658C4.49138 8.63605 4.56903 8.76734 4.66759 8.92688L4.44675 8.54658ZM6.72364 4.62762L6.72352 4.62737C6.67312 4.52275 6.58739 4.37879 6.45709 4.19007C6.31701 3.98736 6.24081 3.87886 6.2194 3.85023L6.20415 3.82983L6.19106 3.808C6.04638 3.56679 5.8974 3.30939 5.74379 3.03607C5.59055 2.76347 5.42375 2.46044 5.243 2.12766L5.24297 2.12759C5.06372 1.79746 4.92443 1.54659 4.82372 1.37284L4.81597 1.35946L4.80906 1.34563C4.64797 1.02334 4.51491 0.792193 4.40955 0.641083C4.36177 0.572549 4.3259 0.529532 4.30215 0.504821C4.28157 0.502245 4.25005 0.5 4.2054 0.5C4.00367 0.5 3.71158 0.538303 3.31613 0.629344L3.31592 0.629392C2.91778 0.720877 2.62802 0.81181 2.43253 0.89795L2.42447 0.9015L2.42444 0.901428C2.28448 0.960183 2.10008 1.09368 1.87682 1.35061C1.6565 1.60415 1.41802 1.95504 1.16361 2.41352C0.714679 3.24147 0.500854 4.04035 0.500854 4.81495C0.500854 5.04875 0.516011 5.27456 0.545913 5.49269L6.72364 4.62762ZM6.72364 4.62762C6.76026 4.70352 6.77221 4.76265 6.77325 4.80852M6.72364 4.62762L6.77325 4.80852M0.709511 6.242L0.709561 6.24218C0.794075 6.54282 0.85914 6.75479 0.905308 6.88507L0.709511 6.242ZM0.709511 6.242C0.628747 5.95511 0.575185 5.70596 0.545923 5.49276L0.709511 6.242ZM6.77325 4.80852C6.77158 4.81517 6.7644 4.84035 6.73776 4.88708C6.69688 4.95879 6.62425 5.05646 6.50616 5.18081L6.77325 4.80852ZM4.28414 0.487435C4.28224 0.486058 4.28129 0.485245 4.28129 0.485183C4.28129 0.485122 4.28224 0.485809 4.28414 0.487435Z" fill="#78C081" stroke="#577A5B"/>
</g>
<defs>
<clipPath id="clip0_92_409">
<rect width="20" height="20" fill="white"/>
</clipPath>
</defs>
</svg>
