<svg width="49" height="60" viewBox="0 0 49 60" fill="none" xmlns="http://www.w3.org/2000/svg">
<g id="Group 20424">
<path id="Vector" d="M33.8787 39.4321C31.14 42.1828 31.4823 47.7333 31.4823 47.7333H17.5929C17.5929 47.7333 17.8864 42.1828 15.1965 39.4321C12.2133 36.7796 10.3059 32.9483 10.3059 28.6749C10.3059 20.8157 16.6637 14.4301 24.4887 14.4301C32.3137 14.4301 38.6715 20.8157 38.6715 28.6749C38.6715 32.9483 36.8131 36.7796 33.8787 39.4321Z" fill="#C3FF17"/>
<g id="Group">
<path id="Vector_2" d="M31.8741 52.105C31.8741 52.8418 31.2872 53.4312 30.5536 53.4312H18.4738C17.7402 53.4312 17.1533 52.8418 17.1533 52.105C17.1533 51.3682 17.7402 50.7788 18.4738 50.7788H30.5047C31.2383 50.7788 31.8741 51.3682 31.8741 52.105Z" fill="#D9FADD"/>
<path id="Vector_3" d="M30.0642 57.6064C30.0642 58.3432 29.4774 58.9326 28.7438 58.9326H20.283C19.5494 58.9326 18.9625 58.3432 18.9625 57.6064C18.9625 56.8696 19.5494 56.2802 20.283 56.2802H28.7438C29.4774 56.2802 30.0642 56.8696 30.0642 57.6064Z" fill="#D9FADD"/>
</g>
<g id="Group_2">
<path id="Vector_4" d="M34.6131 39.9233C37.792 37.0252 39.6015 32.9483 39.6015 28.6749C39.6015 20.3245 32.8035 13.4969 24.4895 13.4969C16.1754 13.4969 9.37744 20.3245 9.37744 28.6749C9.37744 33.0465 11.2848 37.2217 14.5126 40.0706C16.909 42.4775 16.6645 47.586 16.6645 47.6351C16.6645 47.8807 16.7623 48.1263 16.909 48.3227C17.1046 48.5192 17.3492 48.6175 17.5937 48.6175H31.4342C31.6787 48.6175 31.9232 48.5192 32.1189 48.3227C32.3145 48.1263 32.3634 47.8807 32.3634 47.6351C32.3634 47.586 32.1189 42.4775 34.5153 40.0706C34.5642 40.0215 34.6131 39.9724 34.6131 39.9233ZM33.2437 38.6953C33.1459 38.7444 33.097 38.8426 33.0481 38.9409C30.8962 41.2495 30.5539 45.0317 30.5049 46.8H18.5229C18.474 44.9826 18.0828 41.053 15.7842 38.7444C12.8987 36.1902 11.2359 32.5553 11.2359 28.724C11.2359 21.356 17.2024 15.4125 24.4895 15.4125C31.8254 15.4125 37.7431 21.4051 37.7431 28.724C37.7431 32.5062 36.1292 36.1902 33.2437 38.6953Z" fill="#5CCD6A"/>
<path id="Vector_5" d="M24.4893 17.4264C24.0002 17.4264 23.5601 17.8194 23.5601 18.3597C23.5601 18.8509 23.9513 19.293 24.4893 19.293C29.9668 19.293 34.4172 23.7629 34.4172 29.2643C34.4172 29.7555 34.8085 30.1976 35.3465 30.1976C35.8355 30.1976 36.2757 29.8046 36.2757 29.2643C36.2757 22.7314 30.9938 17.4264 24.4893 17.4264Z" fill="#5CCD6A"/>
<path id="Vector_6" d="M32.8031 52.105C32.8031 50.8279 31.7761 49.8455 30.5534 49.8455H18.4736C17.202 49.8455 16.2239 50.877 16.2239 52.105C16.2239 53.3821 17.2509 54.3645 18.4736 54.3645H30.5045C31.7761 54.3645 32.8031 53.3821 32.8031 52.105ZM30.5045 52.4979H18.4736C18.229 52.4979 18.0823 52.3015 18.0823 52.105C18.0823 51.8594 18.2779 51.712 18.4736 51.712H30.5045C30.749 51.712 30.8958 51.9085 30.8958 52.105C30.9447 52.3506 30.749 52.4979 30.5045 52.4979Z" fill="#5CCD6A"/>
<path id="Vector_7" d="M28.744 55.3469H20.2833C19.0117 55.3469 18.0336 56.3784 18.0336 57.6064C18.0336 58.8835 19.0606 59.8659 20.2833 59.8659H28.744C30.0156 59.8659 30.9937 58.8344 30.9937 57.6064C30.9937 56.3784 29.9667 55.3469 28.744 55.3469ZM28.744 57.9994H20.2833C20.0387 57.9994 19.892 57.8029 19.892 57.6064C19.892 57.3608 20.0876 57.2134 20.2833 57.2134H28.744C28.9886 57.2134 29.1353 57.4099 29.1353 57.6064C29.1353 57.852 28.9886 57.9994 28.744 57.9994Z" fill="#5CCD6A"/>
<path id="Vector_8" d="M25.4185 8.04458V1.75725C25.4185 1.26605 25.0272 0.823975 24.4893 0.823975C24.0002 0.823975 23.5601 1.21693 23.5601 1.75725V8.0937C23.5601 8.58489 23.9513 9.02697 24.4893 9.02697C25.0272 8.97785 25.4185 8.58489 25.4185 8.04458Z" fill="#5CCD6A"/>
<path id="Vector_9" d="M39.8946 5.49034C39.4544 5.19562 38.9164 5.34298 38.623 5.73594L35.1506 10.9917C34.8572 11.4338 35.0039 11.9741 35.3952 12.2689C35.5419 12.3671 35.7375 12.4162 35.8842 12.4162C36.1777 12.4162 36.4711 12.2689 36.6667 12.0233L40.1391 6.76745C40.4325 6.37449 40.2858 5.78506 39.8946 5.49034Z" fill="#5CCD6A"/>
<path id="Vector_10" d="M13.4363 12.2197C13.5831 12.2197 13.7787 12.1706 13.9254 12.0724C14.3656 11.7777 14.4634 11.2373 14.2188 10.7953L10.8443 5.49033C10.5509 5.04826 10.0129 4.95002 9.57275 5.19562C9.1326 5.49033 9.03478 6.03065 9.27931 6.47273L12.6538 11.7777C12.8495 12.0724 13.1429 12.2197 13.4363 12.2197Z" fill="#5CCD6A"/>
<path id="Vector_11" d="M0.476266 16.6405L6.00268 19.6368C6.14939 19.7351 6.29611 19.7351 6.44283 19.7351C6.78517 19.7351 7.07861 19.5386 7.27424 19.2439C7.51877 18.8018 7.37205 18.2124 6.88299 17.9668L1.35658 14.9705C0.916423 14.7249 0.329548 14.8722 0.0850165 15.3634C-0.110609 15.8546 0.0361099 16.3949 0.476266 16.6405Z" fill="#5CCD6A"/>
<path id="Vector_12" d="M42.5355 19.7842C42.6822 19.7842 42.8289 19.7351 42.9756 19.686L48.502 16.6897C48.9422 16.4441 49.1378 15.9037 48.8933 15.4125C48.6487 14.9705 48.1108 14.774 47.6217 15.0196L42.0953 18.0159C41.6552 18.2615 41.4595 18.8018 41.7041 19.293C41.8508 19.5877 42.1931 19.7842 42.5355 19.7842Z" fill="#5CCD6A"/>
</g>
</g>
</svg>
