<svg width="42" height="58" viewBox="0 0 42 58" fill="none" xmlns="http://www.w3.org/2000/svg">
<g id="Group">
<g id="Group_2">
<path id="Vector" d="M41.1008 10.7631V53.7864C41.1008 55.545 39.6631 56.9706 37.8897 56.9706H4.11002C2.33654 56.9706 0.898926 55.5449 0.898926 53.7864V10.7631C0.898926 9.0045 2.33665 7.57881 4.11013 7.57881H11.5135V12.0377C11.5135 12.6967 12.0522 13.231 12.7168 13.231H29.2828C29.9474 13.231 30.4861 12.6967 30.4861 12.0377V7.57881H37.8896C39.6631 7.57881 41.1008 9.0045 41.1008 10.7631Z" fill="#D9FADD"/>
<path id="Vector_2" d="M30.4868 6.57513V12.0396C30.4868 12.6987 29.948 13.2329 29.2834 13.2329H12.7165C12.052 13.2329 11.5132 12.6987 11.5132 12.0396V6.57513C11.5132 5.91611 12.052 5.38184 12.7165 5.38184H17.2723V5.37035C17.2723 2.83278 19.8984 0.888023 22.6094 2.0329C23.9274 2.58957 24.7162 3.94973 24.7162 5.37035V5.38184H29.2834C29.948 5.38195 30.4868 5.91622 30.4868 6.57513Z" fill="#D9FADD"/>
</g>
<g id="Group_3">
<path id="Vector_3" d="M29.2837 4.49021H25.5348C24.6157 -0.459509 17.4236 -0.34286 16.4609 4.49021H12.7164C11.5571 4.49021 10.6141 5.42566 10.6141 6.57537V6.68729H4.11015C1.84365 6.68729 0 8.51563 0 10.763V53.7863C0 56.0338 1.84377 57.862 4.11015 57.862H37.8898C40.1563 57.862 42 56.0337 42 53.7863V10.763C42 8.51551 40.1562 6.68729 37.8898 6.68729H31.3859V6.57537C31.3859 5.42566 30.443 4.49021 29.2837 4.49021ZM12.7164 6.27328H17.2722C17.7688 6.27328 18.1713 5.86275 18.1713 5.37048C18.1713 1.80446 23.8175 1.57251 23.8175 5.38186C23.8175 5.87424 24.22 6.27339 24.7165 6.27339H29.2837C29.4514 6.27339 29.5879 6.40873 29.5879 6.57549C29.5879 7.17314 29.5876 10.6722 29.5875 12.0377C29.5875 12.2045 29.451 12.3398 29.2828 12.3398H12.7169C12.5491 12.3398 12.4127 12.2045 12.4127 12.0377C12.4127 11.9462 12.4122 6.48394 12.4122 6.57549C12.4122 6.40862 12.5488 6.27328 12.7164 6.27328ZM12.7164 14.1245H29.2836C30.4429 14.1245 31.3859 13.1895 31.3859 12.0398V12.0376L35.9378 12.0085C36.3219 12.0085 36.634 12.318 36.634 12.6989V51.8505C36.634 52.2315 36.3219 52.541 35.9378 52.541H6.06235C5.67823 52.541 5.36609 52.2315 5.36609 51.8505V12.6988C5.36609 12.3179 5.67823 12.0084 6.06235 12.0084H10.6142V12.0397C10.6142 13.1895 11.5571 14.1245 12.7164 14.1245ZM37.89 8.47025C39.1647 8.47025 40.2021 9.49893 40.2021 10.763V53.7863C40.2021 55.0504 39.1647 56.0791 37.89 56.0791H4.11015C2.83537 56.0791 1.79801 55.0504 1.79801 53.7863V10.763C1.79801 9.49893 2.83537 8.47025 4.11015 8.47025H10.6141V10.2254H6.06224C4.68685 10.2254 3.56797 11.335 3.56797 12.6988V51.8504C3.56797 53.2143 4.68697 54.3238 6.06224 54.3238H35.9376C37.313 54.3238 38.4319 53.2142 38.4319 51.8504V12.6988C38.4319 11.3349 37.3129 10.2254 35.9376 10.2254H31.3858V8.47025H37.89Z" fill="#5CCD6A"/>
<path id="Vector_4" d="M21.6382 4.99517C21.9709 4.64646 22.0003 4.1293 21.6382 3.72925C21.3054 3.39923 20.7032 3.39923 20.3616 3.72925C20.0103 4.11534 20.0208 4.6388 20.3616 4.99517C20.7269 5.33858 21.2728 5.33881 21.6382 4.99517Z" fill="#5CCD6A"/>
<path id="Vector_5" d="M22.0016 20.7839H31.4885C31.985 20.7839 32.3876 20.3847 32.3876 19.8923C32.3876 19.4 31.985 19.0008 31.4885 19.0008H22.0016C21.5051 19.0008 21.1025 19.4 21.1025 19.8923C21.1025 20.3847 21.5052 20.7839 22.0016 20.7839Z" fill="#C3FF17"/>
<path id="Vector_6" d="M22.0016 24.6333H27.617C28.1136 24.6333 28.5161 24.2341 28.5161 23.7418C28.5161 23.2494 28.1136 22.8502 27.617 22.8502H22.0016C21.5051 22.8502 21.1025 23.2494 21.1025 23.7418C21.1025 24.2341 21.5052 24.6333 22.0016 24.6333Z" fill="#C3FF17"/>
<path id="Vector_7" d="M10.5 24.0957C10.5 25.3328 11.5053 26.3393 12.7428 26.3393H16.2572C17.4946 26.3393 18.5 25.3329 18.5 24.0957V20.5784C18.5 19.3409 17.4948 18.3343 16.2572 18.3343H12.7428C11.5054 18.3343 10.5 19.3407 10.5 20.5784V24.0957Z" fill="#C3FF17" stroke="#5CCD6A"/>
<path id="Vector_8" d="M22.0016 31.7536H31.4885C31.985 31.7536 32.3876 31.3544 32.3876 30.862C32.3876 30.3697 31.985 29.9705 31.4885 29.9705H22.0016C21.5051 29.9705 21.1025 30.3697 21.1025 30.862C21.1027 31.3544 21.5052 31.7536 22.0016 31.7536Z" fill="#C3FF17"/>
<path id="Vector_9" d="M22.0016 35.603H27.617C28.1136 35.603 28.5161 35.2038 28.5161 34.7115C28.5161 34.2191 28.1136 33.8199 27.617 33.8199H22.0016C21.5051 33.8199 21.1025 34.2191 21.1025 34.7115C21.1027 35.2038 21.5052 35.603 22.0016 35.603Z" fill="#C3FF17"/>
<path id="Vector_10" d="M18.5 31.5862V31.5861C18.4999 30.3487 17.4947 29.3421 16.2572 29.3421H12.7428C11.5053 29.3421 10.5 30.3487 10.5 31.5862V35.1035C10.5 36.3406 11.5053 37.3471 12.7428 37.3471H16.2572C17.4946 37.3471 18.5 36.3406 18.5 35.1035V31.5862Z" fill="#C3FF17" stroke="#5CCD6A"/>
<path id="Vector_11" d="M22.0016 42.7234H31.4885C31.985 42.7234 32.3876 42.3243 32.3876 41.8319C32.3876 41.3395 31.985 40.9403 31.4885 40.9403H22.0016C21.5051 40.9403 21.1025 41.3395 21.1025 41.8319C21.1027 42.3243 21.5052 42.7234 22.0016 42.7234Z" fill="#C3FF17"/>
<path id="Vector_12" d="M22.0016 46.5728H27.617C28.1136 46.5728 28.5161 46.1737 28.5161 45.6813C28.5161 45.1889 28.1136 44.7897 27.617 44.7897H22.0016C21.5051 44.7897 21.1025 45.1889 21.1025 45.6813C21.1027 46.1737 21.5052 46.5728 22.0016 46.5728Z" fill="#C3FF17"/>
<path id="Vector_13" d="M18.5 42.594V42.5939C18.4999 41.3565 17.4947 40.3499 16.2572 40.3499H12.7428C11.5054 40.3499 10.5 41.3564 10.5 42.594V46.1113C10.5 47.3484 11.5053 48.3549 12.7428 48.3549H16.2572C17.4946 48.3549 18.5 47.3486 18.5 46.1113V42.594Z" fill="#C3FF17" stroke="#5CCD6A"/>
</g>
</g>
</svg>
