<svg width="50" height="51" viewBox="0 0 50 51" fill="none" xmlns="http://www.w3.org/2000/svg">
<g id="Group 20344">
<g id="Group">
<path id="Vector" d="M29.7992 15.3432C29.7992 17.227 29.4411 18.9627 28.8392 20.3526C29.1897 20.5986 29.5154 20.877 29.8123 21.1841L38.3364 12.6539C34.9712 9.24628 30.3118 7.12241 25.156 7.08029C27.7243 7.12251 29.7992 10.8049 29.7992 15.3432Z" fill="#D9FADD"/>
<path id="Vector_2" d="M14.1882 29.8694C15.5192 28.5374 16.9987 27.5636 18.4064 27.0065C18.3401 26.628 18.3035 26.2392 18.3035 25.8416C18.3035 25.8042 18.3058 25.7673 18.3063 25.7299H6.25137C6.25117 25.7674 6.25 25.8044 6.25 25.8417C6.25 30.9682 8.30527 35.6137 11.6353 39.0003C9.84551 37.1543 10.98 33.08 14.1882 29.8694Z" fill="#D9FADD"/>
<path id="Vector_3" d="M20.2009 36.3402C20.2009 34.4565 20.559 32.7208 21.1609 31.3308C20.8104 31.0848 20.4847 30.8064 20.1878 30.4994L11.6637 39.0295C15.0288 42.4371 19.6883 44.561 24.8441 44.6031C22.2758 44.561 20.2009 40.8786 20.2009 36.3402Z" fill="#D9FADD"/>
<path id="Vector_4" d="M20.9752 15.0223C22.3063 16.3543 23.2793 17.8348 23.8361 19.2435C24.2143 19.1772 24.6029 19.1405 25.0001 19.1405C25.0376 19.1405 25.0745 19.1428 25.1118 19.1433V7.0798C25.0744 7.0796 25.0374 7.07843 25 7.07843C19.8772 7.07843 15.235 9.13516 11.8508 12.4675C13.6956 10.6765 17.7669 11.8118 20.9752 15.0223Z" fill="#D9FADD"/>
<path id="Vector_5" d="M14.5089 21.0392C16.3913 21.0392 18.1257 21.3976 19.5147 21.9999C19.7605 21.6491 20.0388 21.3231 20.3456 21.0261L11.8215 12.4959C8.41628 15.8635 6.29392 20.5263 6.25183 25.6857C6.29402 23.1156 9.9738 21.0392 14.5089 21.0392Z" fill="#D9FADD"/>
<path id="Vector_6" d="M35.4911 30.6443C33.6087 30.6443 31.8742 30.2859 30.4853 29.6837C30.2395 30.0344 29.9612 30.3603 29.6544 30.6574L38.1785 39.1876C41.5837 35.82 43.7061 31.1573 43.7482 25.9978C43.706 28.5679 40.0262 30.6443 35.4911 30.6443Z" fill="#D9FADD"/>
<path id="Vector_7" d="M35.8118 21.8141C34.4807 23.1461 33.0012 24.1198 31.5935 24.677C31.6598 25.0554 31.6964 25.4443 31.6964 25.8418C31.6964 25.8793 31.6942 25.9162 31.6936 25.9535H43.7486C43.7488 25.9162 43.75 25.8792 43.75 25.8418C43.75 20.7154 41.6947 16.07 38.3648 12.6834C40.1544 14.5293 39.02 18.6036 35.8118 21.8141Z" fill="#D9FADD"/>
<path id="Vector_8" d="M29.0248 36.6613C27.6938 35.3293 26.7206 33.8487 26.164 32.44C25.7858 32.5064 25.3972 32.543 24.9999 32.543C24.9625 32.543 24.9256 32.5408 24.8883 32.5402V44.6037C24.9256 44.6039 24.9626 44.6051 24.9999 44.6051C30.1228 44.6051 34.765 42.5484 38.1491 39.216C36.3045 41.007 32.2331 39.8717 29.0248 36.6613Z" fill="#D9FADD"/>
</g>
<g id="Group_2">
<path id="Vector_9" d="M35.4911 30.6443C40.0524 30.6443 43.75 28.5442 43.75 25.9535H31.6935C31.6708 27.3403 31.2275 28.6241 30.4851 29.6836C31.8742 30.2859 33.6085 30.6443 35.4911 30.6443Z" fill="#C3FF17"/>
<path id="Vector_10" d="M35.8119 21.8141C39.0372 18.5865 40.1678 14.485 38.3373 12.6531L29.8123 21.1843C30.722 22.1253 31.3579 23.3319 31.5936 24.677C33.0012 24.1198 34.4808 23.1461 35.8119 21.8141Z" fill="#C3FF17"/>
<path id="Vector_11" d="M29.7991 15.3432C29.7991 10.7786 27.7004 7.07843 25.1116 7.07843V19.1434C26.4974 19.1662 27.7803 19.6098 28.8391 20.3527C29.441 18.9627 29.7991 17.227 29.7991 15.3432Z" fill="#C3FF17"/>
<path id="Vector_12" d="M20.9752 15.0222C17.7499 11.7947 13.6512 10.6632 11.8207 12.4951L20.3457 21.0261C21.286 20.1158 22.4918 19.4794 23.8359 19.2435C23.2793 17.8348 22.3062 16.3542 20.9752 15.0222Z" fill="#C3FF17"/>
<path id="Vector_13" d="M14.5089 21.0392C9.94756 21.0392 6.25 23.1393 6.25 25.73H18.3064C18.3292 24.3432 18.7725 23.0594 19.5148 21.9999C18.1258 21.3976 16.3914 21.0392 14.5089 21.0392Z" fill="#C3FF17"/>
<path id="Vector_14" d="M14.1882 29.8694C10.9629 33.097 9.83227 37.1986 11.6628 39.0304L20.1879 30.4994C19.2782 29.5583 18.6423 28.3517 18.4066 27.0067C16.9989 27.5637 15.5193 28.5374 14.1882 29.8694Z" fill="#C3FF17"/>
<path id="Vector_15" d="M20.2009 36.3402C20.2009 40.9048 22.2996 44.6051 24.8884 44.6051V32.5401C23.5026 32.5173 22.2197 32.0737 21.1609 31.3307C20.5591 32.7209 20.2009 34.4565 20.2009 36.3402Z" fill="#C3FF17"/>
<path id="Vector_16" d="M29.0248 36.6613C32.2501 39.8888 36.3487 41.0203 38.1793 39.1884L29.6543 30.6573C28.7139 31.5677 27.5082 32.204 26.1641 32.4399C26.7207 33.8486 27.6937 35.3293 29.0248 36.6613Z" fill="#C3FF17"/>
</g>
<path id="Vector_17" d="M25.0001 19.1404C21.3018 19.1404 18.3037 22.1406 18.3037 25.8417C18.3037 29.5427 21.3018 32.5428 25.0001 32.5428C28.6984 32.5428 31.6965 29.5427 31.6965 25.8417C31.6965 22.1407 28.6984 19.1404 25.0001 19.1404Z" fill="#D9FADD"/>
<path id="Vector_18" d="M25.0002 28.0754C26.233 28.0754 27.2323 27.0753 27.2323 25.8417C27.2323 24.608 26.233 23.608 25.0002 23.608C23.7674 23.608 22.7681 24.608 22.7681 25.8417C22.7681 27.0753 23.7674 28.0754 25.0002 28.0754Z" fill="#C3FF17"/>
<path id="Vector_19" d="M45.1172 0.823975H4.88281C2.19043 0.823975 0 3.01596 0 5.71026V45.9732C0 48.6675 2.19043 50.8595 4.88281 50.8595H45.1172C47.8096 50.8595 50 48.6675 50 45.9732V5.71026C50 3.01596 47.8096 0.823975 45.1172 0.823975ZM48.0469 45.9732C48.0469 47.5898 46.7326 48.905 45.1172 48.905H4.88281C3.26738 48.905 1.95312 47.5898 1.95312 45.9732V5.71026C1.95312 4.09368 3.26738 2.77849 4.88281 2.77849H45.1172C46.7326 2.77849 48.0469 4.09368 48.0469 5.71026V45.9732Z" fill="#5CCD6A"/>
<path id="Vector_20" d="M45.0195 40.9892C44.4803 40.9892 44.043 41.4268 44.043 41.9665C44.043 43.583 42.7287 44.8982 41.1133 44.8982C40.574 44.8982 40.1367 45.3358 40.1367 45.8755C40.1367 46.4151 40.574 46.8527 41.1133 46.8527C43.8057 46.8527 45.9961 44.6607 45.9961 41.9665C45.9961 41.4268 45.5588 40.9892 45.0195 40.9892Z" fill="#5CCD6A"/>
<path id="Vector_21" d="M41.1133 4.83072C40.574 4.83072 40.1367 5.26833 40.1367 5.80798C40.1367 6.34762 40.574 6.78523 41.1133 6.78523C42.7287 6.78523 44.043 8.10042 44.043 9.717C44.043 10.2566 44.4803 10.6943 45.0195 10.6943C45.5588 10.6943 45.9961 10.2566 45.9961 9.717C45.9961 7.02271 43.8057 4.83072 41.1133 4.83072Z" fill="#5CCD6A"/>
<path id="Vector_22" d="M4.98047 10.6943C5.51982 10.6943 5.95703 10.2566 5.95703 9.717C5.95703 8.10042 7.27129 6.78523 8.88672 6.78523C9.42607 6.78523 9.86328 6.34762 9.86328 5.80798C9.86328 5.26833 9.42607 4.83072 8.88672 4.83072C6.19434 4.83072 4.00391 7.02271 4.00391 9.717C4.00391 10.2566 4.44111 10.6943 4.98047 10.6943Z" fill="#5CCD6A"/>
<path id="Vector_23" d="M8.88672 44.8982C7.27129 44.8982 5.95703 43.583 5.95703 41.9665C5.95703 41.4268 5.51982 40.9892 4.98047 40.9892C4.44111 40.9892 4.00391 41.4268 4.00391 41.9665C4.00391 44.6607 6.19434 46.8527 8.88672 46.8527C9.42607 46.8527 9.86328 46.4151 9.86328 45.8755C9.86328 45.3358 9.42607 44.8982 8.88672 44.8982Z" fill="#5CCD6A"/>
<path id="Vector_24" d="M41.1133 43.0414C41.7066 43.0414 42.1875 42.5602 42.1875 41.9665C42.1875 41.3728 41.7066 40.8915 41.1133 40.8915C40.52 40.8915 40.0391 41.3728 40.0391 41.9665C40.0391 42.5602 40.52 43.0414 41.1133 43.0414Z" fill="#5CCD6A"/>
<path id="Vector_25" d="M8.98438 43.0414C9.57765 43.0414 10.0586 42.5602 10.0586 41.9665C10.0586 41.3728 9.57765 40.8915 8.98438 40.8915C8.3911 40.8915 7.91016 41.3728 7.91016 41.9665C7.91016 42.5602 8.3911 43.0414 8.98438 43.0414Z" fill="#5CCD6A"/>
<path id="Vector_26" d="M41.1133 10.792C41.7066 10.792 42.1875 10.3107 42.1875 9.71701C42.1875 9.12331 41.7066 8.64203 41.1133 8.64203C40.52 8.64203 40.0391 9.12331 40.0391 9.71701C40.0391 10.3107 40.52 10.792 41.1133 10.792Z" fill="#5CCD6A"/>
<path id="Vector_27" d="M8.98438 10.792C9.57765 10.792 10.0586 10.3107 10.0586 9.71701C10.0586 9.12331 9.57765 8.64203 8.98438 8.64203C8.3911 8.64203 7.91016 9.12331 7.91016 9.71701C7.91016 10.3107 8.3911 10.792 8.98438 10.792Z" fill="#5CCD6A"/>
<path id="Vector_28" d="M38.9542 39.7817C42.4605 36.2669 44.6521 31.4395 44.7232 26.1091C44.7254 26.0574 44.7267 26.0055 44.7267 25.9534C44.7267 25.9458 44.7257 25.9386 44.7255 25.9311C44.7256 25.9012 44.7266 25.8716 44.7266 25.8417C44.7266 20.5531 42.6372 15.7439 39.2415 12.1963C39.1737 12.1158 39.1029 12.0373 39.0276 11.9621C38.9968 11.9312 38.9639 11.9037 38.9301 11.8778C35.4178 8.36889 30.5937 6.17573 25.267 6.10459C25.2153 6.10244 25.1635 6.10117 25.1114 6.10117C25.1038 6.10117 25.0966 6.10214 25.0891 6.10234C25.0594 6.10214 25.0298 6.10117 25 6.10117C19.7166 6.10117 14.912 8.19083 11.3673 11.5871C11.2856 11.6559 11.2063 11.7278 11.1302 11.804C11.0998 11.8345 11.0725 11.8673 11.0466 11.9011C7.53984 15.416 5.34805 20.2436 5.27695 25.5744C5.2748 25.6261 5.27354 25.678 5.27354 25.73C5.27354 25.7377 5.27451 25.7449 5.27471 25.7524C5.27441 25.7823 5.27344 25.8119 5.27344 25.8417C5.27344 31.1303 7.3627 35.9394 10.7583 39.487C10.8261 39.5676 10.897 39.6461 10.9723 39.7214C11.0032 39.7524 11.0361 39.7799 11.0699 39.8059C14.5822 43.3146 19.4062 45.5078 24.7328 45.5789C24.7845 45.5811 24.8363 45.5823 24.8884 45.5823C24.896 45.5823 24.9033 45.5814 24.9108 45.5812C24.9406 45.5814 24.9702 45.5823 25 45.5823C30.2882 45.5823 35.0967 43.4888 38.6424 40.0869C38.7204 40.0209 38.7969 39.9525 38.8699 39.8794C38.9008 39.8485 38.9282 39.8155 38.9542 39.7817ZM11.8414 13.8979L18.5534 20.6147C17.3381 20.2597 15.9681 20.062 14.5089 20.062C11.7715 20.062 9.34785 20.7578 7.6709 21.883C8.36094 18.8566 9.82412 16.1215 11.8414 13.8979ZM19.2802 25.8417C19.2802 22.6856 21.8461 20.1179 25 20.1179C28.1539 20.1179 30.7198 22.6856 30.7198 25.8417C30.7198 28.9979 28.1539 31.5656 25 31.5656C21.8461 31.5656 19.2802 28.9979 19.2802 25.8417ZM23.9118 33.4416V43.3434C23.373 43.0307 22.858 42.4688 22.4231 41.7019C21.6198 40.2857 21.1774 38.3814 21.1774 36.3403C21.1774 35.0652 21.3509 33.8444 21.6763 32.7618C22.37 33.0968 23.122 33.3288 23.9118 33.4416ZM17.7607 28.3828C18.023 29.1288 18.396 29.8231 18.8621 30.444L11.8638 37.4473C11.7038 36.845 11.7366 36.0832 11.971 35.2333C12.4038 33.6634 13.4364 32.0038 14.8787 30.5605C15.78 29.6586 16.7654 28.9176 17.7607 28.3828ZM17.4056 24.7528H7.51074C7.82324 24.2136 8.38477 23.6982 9.15098 23.2631C10.5663 22.4592 12.4691 22.0165 14.5089 22.0165C15.7832 22.0165 17.003 22.1902 18.0846 22.5161C17.75 23.2103 17.5182 23.9626 17.4056 24.7528ZM13.4026 12.6962C14.0047 12.5361 14.7657 12.5688 15.6152 12.8035C17.184 13.2365 18.8423 14.27 20.2846 15.7133C21.1858 16.6152 21.9258 17.6014 22.4604 18.5973C21.715 18.8598 21.0214 19.233 20.401 19.6994L13.4026 12.6962ZM26.0882 18.2419V8.34006C26.627 8.65278 27.142 9.2147 27.5769 9.98156C28.3802 11.3978 28.8226 13.302 28.8226 15.3432C28.8226 16.6184 28.6488 17.839 28.3232 18.9214C27.6296 18.5866 26.8778 18.3546 26.0882 18.2419ZM29.599 31.9841L36.5974 38.9873C35.9953 39.1474 35.2341 39.1147 34.3848 38.88C32.816 38.447 31.1577 37.4135 29.7154 35.9702C28.8142 35.0683 28.0746 34.082 27.5399 33.086C28.2852 32.8235 28.9787 32.4503 29.599 31.9841ZM32.5944 26.9307H42.4893C42.1768 27.4699 41.6152 27.9853 40.8489 28.4204C39.4337 29.2243 37.5309 29.667 35.4911 29.667C34.2169 29.667 32.9971 29.4934 31.9152 29.1676C32.25 28.4735 32.4818 27.721 32.5944 26.9307ZM31.138 21.2395L38.1362 14.2362C38.2962 14.8385 38.2634 15.6004 38.029 16.4503C37.5963 18.0202 36.5636 19.6797 35.1213 21.123C34.22 22.0249 33.2345 22.7655 32.2392 23.3003C31.9769 22.5545 31.604 21.8603 31.138 21.2395ZM33.2513 24.9762C34.3617 24.3673 35.4704 23.5378 36.5024 22.5052C38.435 20.5713 39.6558 18.3684 40.0484 16.3885C41.6294 18.8998 42.6009 21.832 42.7522 24.9762H33.2513ZM30.2233 19.3906C30.5781 18.1744 30.7757 16.8034 30.7757 15.3433C30.7757 12.6039 30.0804 10.1786 28.956 8.50043C31.9803 9.19096 34.7135 10.6553 36.9354 12.6739L30.2233 19.3906ZM24.1351 17.584C23.5266 16.473 22.6976 15.3638 21.6657 14.3312C19.9883 12.6526 18.0239 11.4409 16.1346 10.9193C15.9377 10.865 15.7446 10.8212 15.5535 10.7827C18.063 9.20063 20.9931 8.22856 24.1351 8.07708V17.584ZM16.7481 26.7073C15.6379 27.3162 14.5295 28.1458 13.4977 29.1783C11.5651 31.1123 10.3444 33.3151 9.95166 35.2949C8.3707 32.7837 7.39922 29.8514 7.24785 26.7073H16.7481ZM19.7766 32.293C19.4218 33.5092 19.2243 34.8802 19.2243 36.3403C19.2243 39.0797 19.9196 41.505 21.044 43.1832C18.0197 42.4926 15.2865 41.0283 13.0646 39.0097L19.7766 32.293ZM25.8649 34.0995C26.4734 35.2105 27.3024 36.3198 28.3342 37.3523C30.2665 39.286 32.4675 40.5081 34.4457 40.9013C31.9363 42.4831 29.0065 43.455 25.8649 43.6064V34.0995ZM31.4466 31.0688C32.6619 31.4238 34.0319 31.6215 35.491 31.6215C38.2284 31.6215 40.6521 30.9257 42.329 29.8005C41.639 32.827 40.1757 35.5621 38.1585 37.7857L31.4466 31.0688Z" fill="#5CCD6A"/>
<path id="Vector_29" d="M28.2089 25.8312C28.2031 24.0607 26.7589 22.625 24.9897 22.6307C23.2204 22.6365 21.7857 24.0817 21.7915 25.8522C21.7973 27.6227 23.2414 29.0585 25.0107 29.0528C26.78 29.0469 28.2148 27.6017 28.2089 25.8312ZM23.7446 25.8458C23.7424 25.1529 24.3038 24.5875 24.9961 24.5852C25.6885 24.583 26.2535 25.1448 26.2558 25.8376C26.258 26.5304 25.6966 27.0959 25.0043 27.0982C24.312 27.1004 23.7469 26.5387 23.7446 25.8458Z" fill="#5CCD6A"/>
</g>
</svg>
