<svg xmlns="http://www.w3.org/2000/svg" version="1.1" xmlns:xlink="http://www.w3.org/1999/xlink" xmlns:svgjs="http://svgjs.com/svgjs" width="60" height="51"><svg width="60" height="51" viewBox="0 0 60 51" fill="none" xmlns="http://www.w3.org/2000/svg">
<path fill-rule="evenodd" clip-rule="evenodd" d="M2.16091 20.4389C0.153104 27.69 -0.306129 35.2889 0.171794 42.7509C-0.0444731 45.1231 1.2291 47.4136 2.92185 49.0478C5.39958 51.4253 10.2803 51.1011 13.4842 50.7663C19.3181 50.2022 21.9133 44.8094 22.255 39.6143C22.5167 30.6341 22.5808 21.198 22.5621 12.202C22.558 11.9459 22.5586 11.677 22.5591 11.4005C22.5615 10.2151 22.5642 8.89141 22.207 7.83981C21.3392 4.90354 18.6399 3.84922 15.9272 4.41328C15.3791 4.58941 14.8511 4.82175 14.352 5.1065C12.7229 6.00075 11.2005 7.07229 9.81302 8.30107C7.03923 10.7181 4.83324 13.7036 3.34905 17.0493C3.20244 17.3522 3.05365 17.7658 2.9159 18.1487C2.8379 18.3656 2.76344 18.5726 2.69491 18.7441C2.55304 19.0991 2.40819 19.5959 2.2816 20.03C2.23904 20.176 2.19854 20.3149 2.16091 20.4389ZM0.171794 42.7509C1.01817 35.1572 2.20897 27.5951 4.91898 20.4468C6.38926 16.6812 8.83666 13.3634 12.0157 10.8262C12.3071 10.578 12.7393 10.2568 13.0916 9.99488C13.1622 9.94239 13.2296 9.89229 13.292 9.84565C13.292 9.84565 15.476 7.95842 16.6588 7.85563C17.8416 7.75283 18.4904 7.83718 18.7574 9.13398L18.8402 9.7534L18.8588 10.4387C18.8402 13.5463 18.8268 19.2897 18.8588 22.4526C18.8989 27.0152 18.9523 31.5777 19.0591 36.1377L19.1312 39.464C19.1192 40.5005 18.9993 41.533 18.7734 42.5453C18.2608 44.9412 16.9578 47.2739 14.5949 48.2175C13.073 48.7684 11.4203 48.9845 9.81836 49.1743C7.94138 49.3377 5.97629 49.4352 4.24348 48.6656C2.1262 47.4162 0.41743 45.2522 0.171794 42.7509Z" fill="#78C081"></path>
<path d="M47.6966 22.4405C48.7224 25.0125 50.591 29.0332 51.2367 33.8637C50.7739 25.0367 50.1714 25.0125 49.8732 23.6591C49.3959 21.4926 48.7574 19.364 47.9628 17.2906C45.6855 11.9451 41.6044 7.54541 36.4145 4.84103C35.9728 4.59707 35.4931 4.42766 34.995 4.33978C34.7095 4.32395 34.5441 4.27646 34.1465 4.27646C31.4382 4.12345 29.389 5.87783 28.9221 8.45269C28.6766 9.56864 28.7433 10.9379 28.7433 12.038C28.7113 18.0082 28.6979 25.4162 28.7966 31.4206C28.8367 33.5787 28.8634 35.7367 28.9221 37.8947C28.9128 39.0599 29.002 40.2239 29.1889 41.3745C30.0828 46.6007 33.0659 50.6397 38.7653 50.8719C41.599 51.075 44.6221 51.1937 47.2583 49.9221C49.3262 48.7904 50.1682 46.8782 50.7739 44.7677C51.1699 43.3878 51.7064 41.9757 53.96 39.72C51.7064 41.0735 50.9604 41.7544 49.4528 45.5849C47.433 48.9934 45.9829 49.4103 42.21 49.1755C41.1584 49.0951 40.1125 48.9541 39.0775 48.7534C38.1382 48.5661 37.111 48.3867 36.2705 47.9356C33.6796 46.6244 32.6096 43.6802 32.3081 40.9471C32.2042 39.9568 32.1801 38.96 32.236 37.9659C32.3268 34.2092 32.4335 28.8194 32.4335 25.0125C32.4335 21.2056 32.4895 15.7683 32.4335 12.0169C32.4442 10.9062 32.2067 9.20721 32.7804 8.26802C33.1859 7.59265 33.8486 7.38261 34.9443 7.90131C39.5768 10.1358 43.3619 13.781 45.7428 18.301C46.4364 19.7166 47.2528 21.3278 47.6966 22.4405Z" fill="#78C081"></path>
<path d="M25.8689 10.6234C26.0571 10.2378 25.9009 9.77076 25.52 9.58016C25.1391 9.38956 24.6777 9.54762 24.4895 9.93319L20.855 17.3776C20.6667 17.7632 20.8229 18.2303 21.2038 18.4209C21.5847 18.6115 22.0461 18.4534 22.2343 18.0679L25.8689 10.6234Z" fill="#78C081"></path>
<path d="M24.9575 10.6234C24.7692 10.2378 24.9254 9.77076 25.3063 9.58016C25.6872 9.38956 26.1486 9.54762 26.3369 9.93319L29.9714 17.3776C30.1596 17.7632 30.0035 18.2303 29.6225 18.4209C29.2416 18.6115 28.7803 18.4534 28.592 18.0679L24.9575 10.6234Z" fill="#78C081"></path>
<path d="M24.6166 0.778697C24.6166 0.348634 24.9611 0 25.386 0C25.8109 0 26.1553 0.348635 26.1553 0.778698V10.6445C26.1553 11.0746 25.8109 11.4232 25.386 11.4232C24.9611 11.4232 24.6166 11.0746 24.6166 10.6445V0.778697Z" fill="#78C081"></path>
<path d="M48.3895 47.8816C48.1544 47.4178 47.9167 46.9899 47.6743 46.5623C47.4318 46.1348 47.185 45.7132 46.9261 45.2905C46.6672 44.8677 46.3951 44.4647 46.1303 44.0631C46.0615 43.9582 45.9836 43.8632 45.9102 43.7623C45.8368 43.6615 45.7566 43.5667 45.6762 43.4681C45.5957 43.3696 45.5085 43.2772 45.4182 43.1755C45.3754 43.1264 45.3284 43.0796 45.2777 43.0355C45.2292 42.9877 45.1783 42.9401 45.1319 42.8884C45.4444 42.9529 45.7377 43.0618 45.9977 43.2098C46.1293 43.2817 46.2543 43.3606 46.3719 43.446C46.4918 43.5295 46.6054 43.6185 46.712 43.7126C47.1343 44.0834 47.4871 44.5006 47.76 44.952C48.0355 45.3992 48.239 45.8731 48.3661 46.3632C48.5072 46.8592 48.5152 47.3763 48.3895 47.8816Z" fill="#78C081"></path>
<path d="M48.1646 42.8688C47.9485 42.3433 47.5946 41.881 47.136 41.5255C46.6954 41.1791 46.1921 40.9114 45.6498 40.7348C45.103 40.5627 44.5376 40.4468 43.9631 40.389C43.3824 40.3227 42.7863 40.2915 42.183 40.2612L42.686 39.7522C42.7831 40.495 42.8969 41.2333 42.9769 41.9785C43.0254 42.3499 43.0596 42.7256 43.1194 43.0696C43.1425 43.246 43.1793 43.4135 43.2231 43.5777C43.2687 43.7423 43.3263 43.9035 43.3956 44.0601C43.6781 44.697 44.13 45.2508 44.7074 45.6678C45.3128 46.1115 46.028 46.4015 46.7875 46.5113C45.9678 46.608 45.1412 46.4567 44.4253 46.0788C43.6777 45.6943 43.0678 45.1085 42.6706 44.3934C42.5719 44.2101 42.4872 44.0202 42.4172 43.825C42.3498 43.6345 42.2961 43.4396 42.2565 43.2418C42.1695 42.8424 42.1213 42.4733 42.0642 42.1125C41.9491 41.3649 41.8524 40.6244 41.7553 39.8815L41.6831 39.329L42.2608 39.3721C42.881 39.4158 43.4977 39.4909 44.1084 39.5972C44.7369 39.702 45.3465 39.8865 45.9211 40.1457C46.5032 40.4091 47.018 40.7878 47.4317 41.2568C47.8434 41.7082 48.099 42.2704 48.1646 42.8688Z" fill="#78C081"></path>
<path d="M49.2151 42.5803C49.0157 42.2485 48.8759 41.8779 48.8049 41.4931C48.7329 41.1031 48.7092 40.7085 48.7345 40.3213C48.8007 39.5472 48.9871 38.8059 49.2853 38.1321C49.5776 37.4451 49.96 36.8212 50.4202 36.2803C50.6615 36.0024 50.9319 35.76 51.2262 35.5576C51.5178 35.3644 51.8251 35.2011 52.145 35.0694C52.4581 34.9312 52.7765 34.8282 53.0904 34.7303C53.4042 34.6324 53.713 34.5473 54.0273 34.4603C54.6497 34.2957 55.2571 34.1325 55.8306 33.9218C56.3838 33.7296 56.9038 33.4463 57.3755 33.0801C57.8725 32.7007 58.2734 32.1819 58.5456 31.566C58.7498 31.0525 58.9198 30.5099 59.1075 29.9836C59.0554 30.1372 59.2275 30.679 59.2565 30.8642C59.4136 31.8532 59.4812 32.8489 59.4582 33.8347C59.4511 34.4824 59.4052 35.1245 59.3207 35.7566L59.2826 36.0011L59.1497 36.6967C59.0876 37.0007 59.0199 37.3066 58.9372 37.6139C58.7668 38.2396 58.5107 38.8217 58.178 39.3397C58.0119 39.5937 57.8291 39.832 57.6312 40.0527C57.4291 40.2675 57.2273 40.4639 57.0195 40.6513C56.6033 41.027 56.1605 41.3636 55.6947 41.6583C54.7692 42.2458 53.7567 42.6548 52.6933 42.8706C53.6505 42.4234 54.5492 41.8444 55.3714 41.1451C55.7759 40.8024 56.1588 40.4283 56.5178 40.0251C56.8723 39.6412 57.1872 39.2114 57.4574 38.7427C57.7041 38.2767 57.8833 37.7625 57.9887 37.2184C58.0472 36.9413 58.0969 36.6561 58.1406 36.3619L58.2037 35.9178L58.2361 35.6936L58.2616 35.4864C58.3151 34.9028 58.3385 34.3128 58.3319 33.7194C58.3313 33.1164 58.6704 33.6979 58.0969 34.1661C57.5346 34.61 56.908 34.9442 56.2392 35.1567C55.5991 35.3714 54.9559 35.5098 54.3316 35.6493C53.7072 35.7887 53.0824 35.9173 52.5108 36.1053C52.2297 36.1941 51.958 36.3111 51.6984 36.4549C51.4424 36.5988 51.2042 36.7774 50.9882 36.9873C50.5326 37.4228 50.1377 37.9352 49.8147 38.51C49.4757 39.0822 49.2257 39.7239 49.0747 40.4096C48.9078 41.1076 48.9573 41.873 49.2151 42.5803Z" fill="#78C081"></path>
</svg><style>@media (prefers-color-scheme: light) { :root { filter: none; } }
</style></svg>